<svg width="200" height="200" viewBox="0 0 200 200" fill="none" xmlns="http://www.w3.org/2000/svg">
<path d="M139.523 88.2871L100.357 107.926L61.4744 88.52V22H66.2164C66.1754 22.225 66.1524 22.4569 66.1524 22.6929C66.1524 24.7549 67.8234 26.4258 69.8864 26.4258C71.9474 26.4258 73.6174 24.7549 73.6174 22.6929C73.6174 22.4569 73.5954 22.224 73.5524 22H78.4754C78.4324 22.225 78.4104 22.4569 78.4104 22.6929C78.4104 24.7549 80.0834 26.4258 82.1424 26.4258C84.2054 26.4258 85.8764 24.7549 85.8764 22.6929C85.8764 22.4569 85.8554 22.224 85.8134 22H90.7344C90.6934 22.225 90.6694 22.4569 90.6694 22.6929C90.6694 24.7549 92.3404 26.4258 94.4024 26.4258C96.4644 26.4258 98.1344 24.7549 98.1344 22.6929C98.1344 22.4569 98.1134 22.224 98.0704 22H102.993C102.948 22.225 102.928 22.4569 102.928 22.6929C102.928 24.7549 104.599 26.4258 106.66 26.4258C108.722 26.4258 110.394 24.7549 110.394 22.6929C110.394 22.4569 110.37 22.224 110.33 22H115.249C115.21 22.225 115.186 22.4569 115.186 22.6929C115.186 24.7549 116.858 26.4258 118.921 26.4258C120.981 26.4258 122.652 24.7549 122.652 22.6929C122.652 22.4569 122.631 22.224 122.588 22H127.51C127.466 22.225 127.444 22.4569 127.444 22.6929C127.444 24.7549 129.115 26.4258 131.177 26.4258C133.239 26.4258 134.911 24.7549 134.911 22.6929C134.911 22.4569 134.888 22.224 134.846 22H139.588L139.521 88.2871H139.523Z" fill="#F7A1A4"/>
<path d="M39.5695 77.5563L39.7255 77.2838C40.4305 75.9968 41.9415 75.2349 43.0485 74.6569L96.6635 47.3971C97.8785 46.7601 99.0395 46.2251 100.481 46.2541C101.919 46.2251 103.186 46.8331 104.293 47.3971L157.862 74.6413C159.73 75.6883 160.674 76.0919 161.358 77.5319C161.861 78.4589 161.879 79.3861 161.879 80.4401L161.845 143.514C162.147 144.92 161.865 146.411 160.797 147.671C160.108 148.582 159.13 149.233 158.028 149.625L104.496 176.818C103.396 177.625 102.01 178.117 100.48 178.076V107.864L39.5695 77.5563Z" fill="#3848D3"/>
<path d="M139.523 88.459V65.27L105.179 47.9907C103.777 47.2797 102.178 46.5108 100.354 46.5478C98.5344 46.5108 97.0684 47.1867 95.5344 47.9897L61.3544 65.3682V88.52L100.357 107.926L139.523 88.459Z" fill="url(#paint0_linear_2866_827)"/>
<path d="M89.0725 86.8667C91.6815 86.8227 93.7925 85.998 95.3945 84.395C96.9995 82.792 97.8235 80.681 97.8735 78.062C97.8285 75.447 97.0105 73.3368 95.4155 71.7358C93.8205 70.1348 91.7065 69.3111 89.0725 69.2651C86.4595 69.3111 84.3475 70.1338 82.7445 71.7358C81.1415 73.3378 80.3155 75.447 80.2695 78.062C80.3155 80.681 81.1385 82.792 82.7445 84.395C84.3475 85.998 86.4595 86.8227 89.0725 86.8667ZM86.1235 106.65H92.5425L114.654 69.9229H108.271L86.1235 106.65ZM89.0725 81.1948C88.1775 81.1768 87.4445 80.8788 86.8795 80.2988C86.3115 79.7208 86.0185 78.9741 86.0005 78.0581C86.0185 77.1281 86.3115 76.382 86.8795 75.814C87.4445 75.245 88.1785 74.953 89.0725 74.937C89.9885 74.953 90.7235 75.245 91.2825 75.814C91.8415 76.382 92.1305 77.132 92.1455 78.062C92.1295 78.976 91.8405 79.7218 91.2825 80.2998C90.7245 80.8778 89.9885 81.1778 89.0725 81.1948ZM112.073 107.193C114.675 107.147 116.777 106.325 118.377 104.724C119.981 103.124 120.805 101.013 120.849 98.3901C120.805 95.7691 119.981 93.6591 118.377 92.0581C116.777 90.4571 114.675 89.6348 112.073 89.5898C109.474 89.6348 107.373 90.4571 105.772 92.0581C104.169 93.6591 103.346 95.7691 103.301 98.3901C103.346 101.013 104.169 103.124 105.772 104.724C107.373 106.325 109.474 107.148 112.073 107.193ZM112.073 101.521C111.185 101.502 110.461 101.206 109.898 100.627C109.336 100.052 109.047 99.3071 109.032 98.3911C109.048 97.4591 109.338 96.7062 109.898 96.1392C110.46 95.5712 111.185 95.2797 112.073 95.2617C112.983 95.2797 113.715 95.5712 114.267 96.1392C114.821 96.7062 115.103 97.4591 115.118 98.3911C115.103 99.3071 114.82 100.052 114.267 100.627C113.714 101.205 112.983 101.502 112.073 101.521Z" fill="#F8ABAD"/>
<path d="M39.5694 77.5562L100.482 107.865V178.077C98.9484 178.118 97.5634 177.626 96.4644 176.819L42.9314 149.626C41.8284 149.233 40.8524 148.583 40.1614 147.672C39.0934 146.411 38.8144 144.921 39.1114 143.515L39.0794 80.5562C38.9214 79.5512 39.0584 78.5132 39.5694 77.5562Z" fill="url(#paint1_linear_2866_827)"/>
<path d="M100.482 107.864V178.076C102.011 178.117 103.398 177.625 104.498 176.818L158.03 149.625C159.132 149.232 160.109 148.582 160.8 147.671C161.866 146.41 162.149 144.92 161.847 143.514L161.881 80.5547C161.881 79.4157 161.903 78.5132 161.393 77.5562L100.482 107.864Z" fill="#8761CF"/>
<path d="M100.482 129.478V178.077C98.9484 178.118 97.5634 177.626 96.4644 176.819L42.9304 149.626C41.8284 149.233 40.8524 148.583 40.1614 147.672C39.0934 146.411 38.8144 144.921 39.1114 143.515L39.1074 133.792C56.9654 131.055 77.9844 129.478 100.482 129.478Z" fill="url(#paint2_linear_2866_827)"/>
<path d="M100.482 129.478V178.077C102.011 178.118 103.398 177.626 104.498 176.819L158.03 149.626C159.132 149.233 160.109 148.583 160.8 147.672C161.866 146.411 162.149 144.921 161.847 143.515L161.854 133.792C143.994 131.055 122.977 129.478 100.482 129.478Z" fill="url(#paint3_linear_2866_827)"/>
<path d="M125.24 122.703V130.123L119.24 133.215L107.162 139.266V114.327L125.24 105.27V122.264L111.72 117.532V132.805L115.964 128.7L119.239 133.216L125.239 130.124L120.637 124.952L125.24 122.703ZM161.863 111.857L128.106 128.771V103.832L161.876 86.9121L161.863 111.857Z" fill="#04B1FB"/>
<defs>
<linearGradient id="paint0_linear_2866_827" x1="60.7753" y1="82.012" x2="140.103" y2="72.3644" gradientUnits="userSpaceOnUse">
<stop stop-color="#4B40C0"/>
<stop offset="1" stop-color="#E47585"/>
</linearGradient>
<linearGradient id="paint1_linear_2866_827" x1="36.9525" y1="116.729" x2="102.308" y2="139.066" gradientUnits="userSpaceOnUse">
<stop stop-color="#31439C"/>
<stop offset="1" stop-color="#80CFE3"/>
</linearGradient>
<linearGradient id="paint2_linear_2866_827" x1="38.7491" y1="149.607" x2="100.829" y2="153.815" gradientUnits="userSpaceOnUse">
<stop stop-color="#1B2BBB"/>
<stop offset="0.9677" stop-color="#068FDE"/>
<stop offset="1" stop-color="#00ACDC"/>
</linearGradient>
<linearGradient id="paint3_linear_2866_827" x1="99.1062" y1="145.055" x2="162.196" y2="166.46" gradientUnits="userSpaceOnUse">
<stop stop-color="#2C3CC9"/>
<stop offset="1" stop-color="#8360CF"/>
</linearGradient>
</defs>
</svg>
